<svg xmlns="http://www.w3.org/2000/svg" viewBox="0 0 256 256"><defs><linearGradient id="bg" x1="0" y1="0" x2="1" y2="1"><stop stop-color="#93c5fd"/><stop offset="1" stop-color="#c4b5fd"/></linearGradient></defs><rect width="256" height="256" rx="128" fill="url(#bg)"/><path fill="#172554" d="M54 238c4-54 32-81 74-81s70 27 74 81H54Z"/><path fill="#f6c7a8" d="M88 132h80v40H88z"/><ellipse cx="128" cy="105" rx="61" ry="69" fill="#f8c9a9"/><path fill="#172033" d="M68 103c-6-55 24-83 65-83 48 0 70 32 58 87l-20-35-22 18-15-29-29 35-27-18-10 25Z"/><path fill="#172033" d="M68 102c8-42 35-61 73-61 27 0 42 13 50 31-16-9-32-11-51-7-21 5-42 19-72 37Z"/><ellipse cx="105" cy="111" rx="7" ry="10" fill="#172033"/><ellipse cx="151" cy="111" rx="7" ry="10" fill="#172033"/><circle cx="107" cy="109" r="2" fill="#fff"/><circle cx="153" cy="109" r="2" fill="#fff"/><path d="M116 139c8 6 16 6 24 0" fill="none" stroke="#b45352" stroke-width="4" stroke-linecap="round"/><path fill="#2563eb" d="M82 161l46 35 46-35 21 77H61l21-77Z"/><path fill="#fff" d="m128 181 18 57h-36l18-57Z"/></svg>